<?xml version="1.0" encoding="UTF-8"?>
<svg xmlns="http://www.w3.org/2000/svg" xmlns:xlink="http://www.w3.org/1999/xlink" version="1.1" width="512" height="512" x="0" y="0" viewBox="0 0 32 32" style="enable-background:new 0 0 512 512" xml:space="preserve" class="">
  <g>
    <path d="M16.03 16.09C12.6 19.8 8.72 24 3 24c-.55 0-1-.45-1-1s.45-1 1-1c4.84 0 8.26-3.69 11.56-7.26C17.76 11.27 20.79 8 25 8h1.59L24.3 5.71a.996.996 0 1 1 1.41-1.41l4 4c.39.39.39 1.02 0 1.41l-4 4c-.2.19-.45.29-.71.29s-.51-.1-.71-.29a.996.996 0 0 1 0-1.41l2.3-2.3H25c-3.34 0-6.08 2.96-8.97 6.09zm9.68 2.2a.996.996 0 1 0-1.41 1.41l2.29 2.3H25c-2.64 0-4.83-1.82-6.79-3.79a.996.996 0 1 0-1.41 1.41C18.96 21.79 21.62 24 25 24h1.59l-2.29 2.29a.996.996 0 0 0 0 1.41c.19.2.44.3.7.3s.51-.1.71-.29l4-4a.996.996 0 0 0 0-1.41zM3 10c2.81 0 5.36 1.19 8.26 3.87a.995.995 0 1 0 1.35-1.46C10.4 10.35 7.3 8 3 8c-.55 0-1 .45-1 1s.45 1 1 1z" fill="#f08c00" opacity="1" data-original="#000000" class=""/>
  </g>
</svg>
